<svg width="20" height="20" viewBox="0 0 20 20" fill="none" xmlns="http://www.w3.org/2000/svg">
<path d="M13.5382 7.74233C13.382 7.58712 13.1708 7.5 12.9507 7.5C12.7305 7.5 12.5193 7.58712 12.3632 7.74233L9.3715 10.6923L6.4215 7.74233C6.26536 7.58712 6.05415 7.5 5.834 7.5C5.61384 7.5 5.40263 7.58712 5.2465 7.74233C5.16839 7.8198 5.1064 7.91196 5.06409 8.01351C5.02178 8.11506 5 8.22398 5 8.33399C5 8.444 5.02178 8.55292 5.06409 8.65447C5.1064 8.75602 5.16839 8.84819 5.2465 8.92566L8.77983 12.459C8.8573 12.5371 8.94947 12.5991 9.05102 12.6414C9.15257 12.6837 9.26149 12.7055 9.3715 12.7055C9.48151 12.7055 9.59043 12.6837 9.69198 12.6414C9.79353 12.5991 9.8857 12.5371 9.96316 12.459L13.5382 8.92566C13.6163 8.84819 13.6783 8.75602 13.7206 8.65447C13.7629 8.55292 13.7847 8.444 13.7847 8.33399C13.7847 8.22398 13.7629 8.11506 13.7206 8.01351C13.6783 7.91196 13.6163 7.8198 13.5382 7.74233Z" fill="currentcolor"/>
</svg>
