<svg xmlns="http://www.w3.org/2000/svg" fill="#fff" viewBox="0 0 16 16">
  <path d="M8.667 9.333H6a.667.667 0 1 0 0 1.334h2.667a.667.667 0 0 0 0-1.334Zm2.666-6.666h-.786a2 2 0 0 0-1.88-1.334H7.333a2 2 0 0 0-1.88 1.334h-.786a2 2 0 0 0-2 2v8a2 2 0 0 0 2 2h6.666a2 2 0 0 0 2-2v-8a2 2 0 0 0-2-2Zm-4.666.666a.667.667 0 0 1 .666-.666h1.334a.667.667 0 0 1 .666.666V4H6.667v-.667ZM12 12.667a.667.667 0 0 1-.667.666H4.667A.667.667 0 0 1 4 12.667v-8A.667.667 0 0 1 4.667 4h.666v.667A.667.667 0 0 0 6 5.333h4a.667.667 0 0 0 .667-.666V4h.666a.667.667 0 0 1 .667.667v8Zm-2-6H6A.667.667 0 0 0 6 8h4a.667.667 0 1 0 0-1.333Z"/>
</svg>