<svg xmlns="http://www.w3.org/2000/svg" width="207" height="200" fill="none" stroke-width=".5">
  <g filter="url(#filter0_f_392_1288)" opacity=".7">
    <circle cx="103.6" cy="101.6" r="16.3" stroke="#D9D9D9"/>
    <circle cx="103.6" cy="101.6" r="33.5" stroke="#D9D9D9" opacity=".5"/>
    <circle cx="103.6" cy="101.6" r="53" stroke="#D9D9D9"/>
    <circle cx="103.6" cy="101.6" r="73.9" stroke="#D9D9D9" opacity=".5"/>
    <circle cx="103.6" cy="101.6" r="96.2" stroke="#D9D9D9"/>
    <g fill="#fff">
      <g stroke="#fff">
        <rect width="9.2" height="9.2" x="149.8" y="85.6" rx="4.6"/>
        <rect width="9.2" height="9.2" x="127.7" y="115.8" rx="4.6"/>
        <rect width="9.2" height="9.2" x="115.3" y="68.4" rx="4.6"/>
        <rect width="9.2" height="9.2" x="180" y="44" rx="4.6"/>
        <rect width="9.2" height="9.2" x="173" y="96.3" rx="4.6"/>
        <rect width="9.2" height="9.4" x="46" y="45.9" rx="4.6"/>
        <rect width="9.2" height="9.4" x="163.9" y="134.4" rx="4.6"/>
        <rect width="9.2" height="9.4" x="144.9" y="39" rx="4.6"/>
        <rect width="9.2" height="9.2" x="92.7" y="44" rx="4.6"/>
        <rect width="9.2" height="9.2" x="75.1" y="77.3" rx="4.6"/>
        <rect width="9.2" height="9.4" x="78" y="120.6" rx="4.6"/>
        <rect width="9.2" height="9.2" x="46" y="105.6" rx="4.6"/>
        <rect width="9.2" height="9.4" x="102.3" y="149.9" rx="4.6"/>
        <rect width="9.2" height="9.2" x="57.5" y="158" rx="4.6"/>
        <rect width="9.2" height="9.2" x="148.4" y="179.9" rx="4.6"/>
        <rect width="9.4" height="9.4" x="19.9" y="153" rx="4.7"/>
        <rect width="9.2" height="9.4" x="12.6" y="53.7" rx="4.6"/>
        <rect width="9.2" height="9.2" x="99.4" y="2.4" rx="4.6"/>
        <rect width="9.2" height="9.2" x="190.4" y="127" rx="4.6"/>
        <rect width="9.2" height="9.2" x="52.6" y="12.1" rx="4.6"/>
        <rect width="9.2" height="9.2" x="57.5" y="184.7" rx="4.6"/>
        <rect width="9.2" height="9.2" x="195.2" y="82.1" rx="4.6"/>
        <rect width="9.2" height="9.2" x="137.4" y="12.1" rx="4.6"/>
        <rect width="9.2" height="9.4" x="2.9" y="103.4" rx="4.6"/>
        <rect width="9.2" height="9.2" x="142.2" y="158" rx="4.6"/>
      </g>
      <path d="M101.6 104.9c-.5-.4-.6-1.4-.4-2 .3.4.8.5 1.3.6.8.1 1.6 0 2.3-.3l.2-.1v.6c0 .5-.2.8-.6 1.1l-.5.3c-.5.4-.6.7-.4 1.3-.3 0-.4-.2-.6-.4l-.2-.8v-.4c0-.3-.2-.4-.5-.4s-.5.2-.6.4v.1Z"/>
      <path d="M99.2 103s1.3-.6 2.6-.6l1-3c0-.2.2-.3.3-.3l.3.2 1 3.1c1.5 0 2.6.7 2.6.7l-2.2-6.1c-.1-.2-.2-.3-.4-.3h-2.7c-.1 0-.2 0-.3.3l-2.2 6Z"/>
    </g>
  </g>
  <defs>
    <filter id="filter0_f_392_1288" width="205.4" height="199.3" x=".9" y=".5" color-interpolation-filters="sRGB" filterUnits="userSpaceOnUse">
      <feFlood flood-opacity="0" result="BackgroundImageFix"/>
      <feBlend in="SourceGraphic" in2="BackgroundImageFix" result="shape"/>
      <feGaussianBlur result="effect1_foregroundBlur_392_1288" stdDeviation=".8"/>
    </filter>
  </defs>
</svg>
