<svg xmlns="http://www.w3.org/2000/svg" width="600" height="599" fill="none" viewBox="0 0 600 599"><g clip-path="url(#a)"><path fill="currentcolor" d="M473.406 214.608c-12.467-17.299-41.134-52.867-85.169-105.707a10821 10821 0 0 0-43.584-51.923c-4.451-5.269-8.269-9.777-11.283-13.34l-4.804-5.663-2.606-3.071-.507-.747-.226-.099L314.113 21l-14.087 11.298c-35.963 28.807-65.419 65.94-85.154 107.326-12.101 24.624-20.003 48.698-24.145 73.491a300 300 0 0 0-2.789 17.059 252 252 0 0 0-14.622-.761 31 31 0 0 0-1.366-.056 172.1 172.1 0 0 0-52.741 6.339l-7.339 2.056-3.775 6.621c-17.693 31.033-27.71 66.363-28.963 102.157-1.62 46.486 11.044 91.479 36.626 130.119 25.032 37.795 60.389 66.687 102.255 83.549l5.452 2.197 1.648.578.07-.028c21.807 7.916 44.698 12.34 68.039 13.143 2.649.098 5.283.14 7.917.14 29.455 0 58.136-5.761 85.352-17.157l.197.084 7.24-3.352a222.7 222.7 0 0 0 90.846-77.167c23.37-34.471 36.498-74.801 37.963-116.624 1.747-49.994-14.861-99.58-49.345-147.39zM309.535 369.506c7.593 28.779 6.099 56.431-4.409 82.308-26.258-25.919-45.515-54.417-57.263-84.788-12.579-32.484-20.144-63.39-22.539-91.972 11.115 3.649 21.328 8.466 30.428 14.397 26.173 17.059 44.274 43.993 53.783 80.069zm4.789 139.317c11.157 8.495 22.891 16.454 34.992 23.779-17.82 4.846-36.203 6.973-54.798 6.311a180 180 0 0 1-8.635-.507c10.593-9.129 20.116-19.032 28.427-29.583zm31.16-148.798c-11.945-45.274-35.315-79.505-69.447-101.734-14.975-9.748-32.034-17.144-50.769-21.975.268-3.114.606-6.213 1-9.255.338-2.606.69-5.001 1.071-7.241a268 268 0 0 1 21.045-63.968l.099-.197c4.085-8.269 8.691-16.622 14.115-25.553l2.127-3.508-.071-.042a269.7 269.7 0 0 1 44.937-53.445l6.663 7.874a11433 11433 0 0 1 43.43 51.755c29.877 35.837 68.616 82.9 83.562 103.65 29.554 40.964 43.796 82.788 42.345 124.344-1.127 32.272-10.678 63.742-27.638 90.986-16.059 25.821-38.429 47.43-64.785 62.643-14.707-7.339-36.062-19.411-58.742-36.977 18.285-36.443 22.018-75.899 11.072-117.357zM285.911 484.89c-16.763 21.722-36.71 35.851-48.345 42.95a159 159 0 0 1-5.635-2.169l-1.493-.592c-34.47-14.241-63.545-38.315-84.084-69.644-20.989-32.019-31.385-69.237-30.047-107.637.958-27.525 7.818-53.825 20.412-78.181a134.5 134.5 0 0 1 22.215-3.015l1.929-.042c3.762-.085 7.509-.085 11.073 0 5.24.239 10.494.789 15.664 1.62 1.69 34.991 10.283 72.744 25.567 112.243 14.721 38.02 39.176 73.138 72.73 104.453z"/></g><defs><clipPath id="a"><path fill="#fff" d="M78.994 21h443.887v555.214H78.994z"/></clipPath></defs></svg>
