<svg width="17" height="17" viewBox="0 0 17 17" fill="none" xmlns="http://www.w3.org/2000/svg">
<path fill-rule="evenodd" clip-rule="evenodd" d="M9.13338 1.74967C9.54117 2.4645 9.29348 3.37333 8.58242 3.78113L4.15691 6.31834C4.09956 6.35145 4.05195 6.39909 4.01888 6.45647C3.98581 6.51384 3.96845 6.57892 3.96855 6.64514V10.628C3.96845 10.6942 3.98581 10.7593 4.01888 10.8167C4.05195 10.8741 4.09956 10.9217 4.15691 10.9548L7.65852 12.9608C7.71556 12.9936 7.78018 13.0108 7.84594 13.0108C7.9117 13.0108 7.97631 12.9936 8.03336 12.9608L11.534 10.9548C11.5915 10.9218 11.6393 10.8742 11.6726 10.8168C11.7058 10.7595 11.7233 10.6943 11.7233 10.628V8.15108L8.57489 9.93296C7.86101 10.3379 6.955 10.0837 6.55285 9.36788C6.3591 9.02406 6.30959 8.61744 6.41516 8.23716C6.52073 7.85689 6.77278 7.53399 7.11604 7.33925L11.6216 4.7898C12.9938 4.01282 14.6919 5.00736 14.6919 6.58864V10.9303C14.6922 11.4293 14.5607 11.9196 14.3109 12.3515C14.061 12.7835 13.7015 13.1418 13.2688 13.3903L9.24733 15.6949C8.82082 15.9396 8.33767 16.0684 7.84594 16.0684C7.35421 16.0684 6.87105 15.9396 6.44454 15.6949L2.42306 13.3903C1.99019 13.1417 1.63064 12.7832 1.38076 12.3511C1.13088 11.919 0.999536 11.4286 1 10.9294V6.34283C0.999606 5.84391 1.13089 5.35373 1.38059 4.92179C1.63029 4.48986 1.98957 4.13148 2.42212 3.88285L7.10945 1.1959C7.27873 1.09895 7.46548 1.03639 7.659 1.01181C7.85251 0.987228 8.04898 1.00111 8.23711 1.05265C8.42525 1.10419 8.60136 1.19238 8.75532 1.31215C8.90929 1.43193 9.03809 1.58093 9.13432 1.75061L9.13338 1.74967Z" fill="currentcolor"/>
</svg>
