<svg width="156" height="104" viewBox="0 0 156 104" fill="none" xmlns="http://www.w3.org/2000/svg">
<path d="M0 21.5026C0 9.96577 9.35249 0.613281 20.8894 0.613281H135.781C147.318 0.613281 156.67 9.96577 156.67 21.5027V97.2266C156.67 108.763 147.318 118.116 135.781 118.116H20.8894C9.35249 118.116 0 108.763 0 97.2266V21.5026Z" fill="url(#paint0_angular_392_1169)"/>
<path d="M6.12012 23.4224C6.12012 14.2059 13.6257 6.73438 22.8844 6.73438H133.786C143.045 6.73438 150.551 14.2059 150.551 23.4224V95.3092C150.551 104.526 143.045 111.997 133.786 111.997H22.8844C13.6257 111.997 6.12012 104.526 6.12012 95.3092V23.4224Z" fill="url(#paint1_radial_392_1169)"/>
<path d="M49.2915 71.6045C49.2915 78.7868 43.469 84.6093 36.2866 84.6093C29.1042 84.6093 23.2817 78.7868 23.2817 71.6045C23.2817 64.4221 29.1042 58.5996 36.2866 58.5996C43.469 58.5996 49.2915 64.4221 49.2915 71.6045Z" fill="white"/>
<path d="M84.4038 71.604C84.4038 75.1952 81.4925 78.1064 77.9014 78.1064C74.3102 78.1064 71.3989 75.1952 71.3989 71.604C71.3989 68.0128 74.3102 65.1016 77.9014 65.1016C81.4925 65.1016 84.4038 68.0128 84.4038 71.604Z" fill="white"/>
<path d="M132.522 71.6045C132.522 78.7868 126.7 84.6093 119.518 84.6093C112.335 84.6093 106.513 78.7868 106.513 71.6045C106.513 64.4221 112.335 58.5996 119.518 58.5996C126.7 58.5996 132.522 64.4221 132.522 71.6045Z" fill="white"/>
<defs>
<radialGradient id="paint0_angular_392_1169" cx="0" cy="0" r="1" gradientUnits="userSpaceOnUse" gradientTransform="translate(78.3352 59.3646) rotate(-90) scale(58.7514 78.3351)">
<stop stop-color="#3245FF"/>
<stop offset="0.286458" stop-color="#BC52EE"/>
<stop offset="0.41434" stop-color="#4AF2C8"/>
<stop offset="0.554661" stop-color="#4AF2C8"/>
<stop offset="1" stop-color="#3245FF"/>
</radialGradient>
<radialGradient id="paint1_radial_392_1169" cx="0" cy="0" r="1" gradientUnits="userSpaceOnUse" gradientTransform="translate(78.3353 46.2079) rotate(90) scale(85.6723 117.55)">
<stop offset="0.366592" stop-color="#191C24"/>
<stop offset="0.661446" stop-color="#111218"/>
<stop offset="1" stop-color="#040506"/>
</radialGradient>
</defs>
</svg>
