<svg width="162" height="32" viewBox="0 0 162 32" fill="none" xmlns="http://www.w3.org/2000/svg">
<path d="M158 0H4C1.79086 0 0 1.79086 0 4V28C0 30.2091 1.79086 32 4 32H158C160.209 32 162 30.2091 162 28V4C162 1.79086 160.209 0 158 0Z" fill="#1374EF"/>
<path d="M33 0H32V32H33V0Z" fill="#1269D3"/>
<path d="M10 17.5882H15.1651L12.1269 25L22 14.4118H16.8349L19.8731 7L10 17.5882Z" fill="white"/>
<path d="M44.9891 20.7167C45.836 20.7167 46.5665 20.5321 47.1806 20.1628C47.7947 19.7896 48.2663 19.2618 48.5954 18.5795C48.9285 17.8971 49.0951 17.0904 49.0951 16.1592V16.1472C49.0951 15.216 48.9285 14.4092 48.5954 13.7269C48.2623 13.0446 47.7886 12.5188 47.1746 12.1496C46.5605 11.7803 45.832 11.5957 44.9891 11.5957C44.1503 11.5957 43.4218 11.7803 42.8037 12.1496C42.1896 12.5188 41.714 13.0446 41.3768 13.7269C41.0437 14.4052 40.8771 15.212 40.8771 16.1472V16.1592C40.8771 17.0904 41.0437 17.8971 41.3768 18.5795C41.7099 19.2618 42.1815 19.7896 42.7916 20.1628C43.4057 20.5321 44.1382 20.7167 44.9891 20.7167ZM44.9891 19.3742C44.4673 19.3742 44.0158 19.2417 43.6345 18.9768C43.2572 18.7119 42.9662 18.3386 42.7615 17.857C42.5608 17.3754 42.4605 16.8094 42.4605 16.1592V16.1472C42.4605 15.4929 42.5628 14.927 42.7675 14.4494C42.9763 13.9677 43.2693 13.5965 43.6465 13.3356C44.0278 13.0707 44.4754 12.9382 44.9891 12.9382C45.5069 12.9382 45.9544 13.0707 46.3317 13.3356C46.709 13.5965 47 13.9677 47.2047 14.4494C47.4134 14.927 47.5177 15.4929 47.5177 16.1472V16.1592C47.5177 16.8094 47.4134 17.3754 47.2047 17.857C47 18.3386 46.709 18.7119 46.3317 18.9768C45.9544 19.2417 45.5069 19.3742 44.9891 19.3742Z" fill="white"/>
<path d="M50.7206 22.6854H52.2197V19.4524H52.3221C52.4385 19.6892 52.595 19.8939 52.7917 20.0665C52.9884 20.2391 53.2171 20.3736 53.478 20.4699C53.7389 20.5622 54.0199 20.6084 54.3209 20.6084C54.8748 20.6084 55.3524 20.4719 55.7538 20.199C56.1592 19.922 56.4722 19.5307 56.693 19.025C56.9137 18.5192 57.0241 17.9172 57.0241 17.2188V17.2068C57.0241 16.5124 56.9117 15.9124 56.687 15.4066C56.4662 14.8969 56.1531 14.5036 55.7478 14.2266C55.3464 13.9497 54.8708 13.8112 54.3209 13.8112C54.0118 13.8112 53.7289 13.8574 53.472 13.9497C53.2151 14.042 52.9884 14.1724 52.7917 14.341C52.599 14.5096 52.4425 14.7123 52.3221 14.9491H52.2197V13.9196H50.7206V22.6854ZM53.8513 19.3441C53.5142 19.3441 53.2212 19.2598 52.9723 19.0912C52.7235 18.9186 52.5308 18.6738 52.3943 18.3567C52.2619 18.0356 52.1957 17.6543 52.1957 17.2128V17.2008C52.1957 16.7593 52.2619 16.38 52.3943 16.0629C52.5308 15.7458 52.7215 15.503 52.9663 15.3344C53.2151 15.1618 53.5101 15.0755 53.8513 15.0755C54.1925 15.0755 54.4855 15.1618 54.7303 15.3344C54.9751 15.503 55.1638 15.7458 55.2962 16.0629C55.4287 16.38 55.4949 16.7613 55.4949 17.2068V17.2188C55.4949 17.6563 55.4287 18.0356 55.2962 18.3567C55.1638 18.6738 54.9751 18.9186 54.7303 19.0912C54.4855 19.2598 54.1925 19.3441 53.8513 19.3441Z" fill="white"/>
<path d="M61.3529 20.6324C61.7984 20.6324 62.1897 20.5763 62.5269 20.4639C62.864 20.3475 63.149 20.197 63.3818 20.0123C63.6186 19.8237 63.8052 19.621 63.9417 19.4043C64.0821 19.1835 64.1785 18.9668 64.2307 18.754L64.2427 18.6999H62.8219L62.8038 18.742C62.7556 18.8423 62.6713 18.9487 62.5509 19.0611C62.4305 19.1695 62.272 19.2638 62.0753 19.3441C61.8827 19.4203 61.6519 19.4584 61.383 19.4584C61.0378 19.4584 60.7388 19.3822 60.4859 19.2297C60.2371 19.0731 60.0444 18.8524 59.9079 18.5674C59.7715 18.2784 59.7032 17.9312 59.7032 17.5259V16.9238C59.7032 16.5024 59.7715 16.1472 59.9079 15.8582C60.0484 15.5652 60.2371 15.3444 60.4739 15.1959C60.7147 15.0434 60.9896 14.9671 61.2987 14.9671C61.6077 14.9671 61.8786 15.0394 62.1114 15.1839C62.3482 15.3284 62.5329 15.5451 62.6653 15.8341C62.7978 16.1231 62.864 16.4863 62.864 16.9238V17.5198L63.5744 16.5806H58.9627V17.5861H64.3089V17.0924C64.3089 16.4301 64.1865 15.8522 63.9417 15.3585C63.6968 14.8648 63.3476 14.4815 62.8941 14.2086C62.4446 13.9316 61.9067 13.7931 61.2806 13.7931C60.6585 13.7931 60.1166 13.9356 59.6551 14.2206C59.1935 14.5016 58.8363 14.8989 58.5834 15.4127C58.3346 15.9264 58.2101 16.5285 58.2101 17.2188V17.2248C58.2101 17.9232 58.3366 18.5273 58.5894 19.037C58.8423 19.5467 59.2015 19.9401 59.6671 20.217C60.1367 20.494 60.6986 20.6324 61.3529 20.6324Z" fill="white"/>
<path d="M65.808 20.5H67.3071V16.6649C67.3071 16.3358 67.3653 16.0508 67.4817 15.81C67.5981 15.5692 67.7647 15.3826 67.9814 15.2501C68.1982 15.1177 68.455 15.0514 68.7521 15.0514C69.2056 15.0514 69.5387 15.1799 69.7515 15.4367C69.9682 15.6936 70.0766 16.0789 70.0766 16.5927V20.5H71.5757V16.2435C71.5757 15.4608 71.381 14.8568 70.9917 14.4313C70.6024 14.0059 70.0404 13.7931 69.3059 13.7931C68.8323 13.7931 68.437 13.8935 68.1199 14.0942C67.8028 14.2949 67.566 14.5738 67.4095 14.931H67.3071V13.9196H65.808V20.5Z" fill="white"/>
<path d="M76.651 20.5H78.1441V13.9196H76.651V20.5ZM77.4035 12.8178C77.6484 12.8178 77.8571 12.7315 78.0297 12.5589C78.2063 12.3864 78.2946 12.1797 78.2946 11.9388C78.2946 11.69 78.2063 11.4813 78.0297 11.3127C77.8571 11.1401 77.6484 11.0538 77.4035 11.0538C77.1587 11.0538 76.948 11.1401 76.7714 11.3127C76.5948 11.4813 76.5065 11.69 76.5065 11.9388C76.5065 12.1797 76.5948 12.3864 76.7714 12.5589C76.948 12.7315 77.1587 12.8178 77.4035 12.8178Z" fill="white"/>
<path d="M79.9923 20.5H81.4915V16.6649C81.4915 16.3358 81.5496 16.0508 81.666 15.81C81.7824 15.5692 81.949 15.3826 82.1657 15.2501C82.3825 15.1177 82.6394 15.0514 82.9364 15.0514C83.3899 15.0514 83.7231 15.1799 83.9358 15.4367C84.1525 15.6936 84.2609 16.0789 84.2609 16.5927V20.5H85.76V16.2435C85.76 15.4608 85.5653 14.8568 85.176 14.4313C84.7867 14.0059 84.2248 13.7931 83.4903 13.7931C83.0166 13.7931 82.6213 13.8935 82.3042 14.0942C81.9871 14.2949 81.7503 14.5738 81.5938 14.931H81.4915V13.9196H79.9923V20.5Z" fill="white"/>
<path d="M93.99 20.7167C94.6844 20.7167 95.2844 20.6043 95.7902 20.3796C96.2999 20.1548 96.6912 19.8377 96.9642 19.4283C97.2411 19.0189 97.3796 18.5333 97.3796 17.9714V17.9654C97.3796 17.3071 97.1749 16.7853 96.7655 16.4C96.3601 16.0107 95.6999 15.7197 94.7847 15.5271L93.8516 15.3284C93.3097 15.216 92.9184 15.0595 92.6776 14.8588C92.4407 14.6581 92.3223 14.4052 92.3223 14.1002V14.0942C92.3223 13.8453 92.3926 13.6326 92.5331 13.456C92.6776 13.2794 92.8742 13.1429 93.1231 13.0466C93.3719 12.9463 93.6549 12.8961 93.972 12.8961C94.3051 12.8961 94.5961 12.9463 94.8449 13.0466C95.0938 13.1469 95.2925 13.2834 95.441 13.456C95.5935 13.6246 95.6878 13.8233 95.7239 14.052L95.736 14.1243H97.217L97.211 14.046C97.1789 13.5804 97.0284 13.163 96.7595 12.7937C96.4905 12.4245 96.1213 12.1335 95.6517 11.9208C95.1821 11.704 94.6262 11.5957 93.984 11.5957C93.3579 11.5957 92.802 11.706 92.3163 11.9268C91.8347 12.1435 91.4554 12.4466 91.1784 12.8359C90.9055 13.2252 90.7691 13.6788 90.7691 14.1965V14.2025C90.7691 14.8487 90.9697 15.3806 91.3711 15.798C91.7765 16.2114 92.4247 16.5124 93.3157 16.7011L94.2489 16.8937C94.8108 17.0141 95.2142 17.1747 95.459 17.3754C95.7039 17.572 95.8263 17.8269 95.8263 18.14V18.146C95.8263 18.3948 95.75 18.6156 95.5975 18.8082C95.445 18.9969 95.2343 19.1454 94.9653 19.2537C94.6964 19.3621 94.3874 19.4163 94.0382 19.4163C93.6729 19.4163 93.3478 19.3661 93.0629 19.2658C92.7779 19.1614 92.5491 19.0189 92.3765 18.8383C92.208 18.6577 92.1116 18.445 92.0875 18.2002L92.0815 18.14H90.5764L90.5824 18.2242C90.6185 18.7219 90.7791 19.1574 91.0641 19.5307C91.349 19.904 91.7384 20.195 92.232 20.4037C92.7297 20.6124 93.3157 20.7167 93.99 20.7167Z" fill="white"/>
<path d="M101.558 20.5301C101.702 20.5301 101.841 20.5241 101.973 20.512C102.11 20.5 102.23 20.4839 102.334 20.4639V19.3079C102.246 19.316 102.166 19.324 102.094 19.332C102.025 19.336 101.937 19.338 101.829 19.338C101.52 19.338 101.295 19.2638 101.154 19.1153C101.018 18.9628 100.95 18.7239 100.95 18.3988V15.0815H102.334V13.9196H100.95V12.3061H99.4265V13.9196H98.4031V15.0815H99.4265V18.754C99.4265 19.3842 99.5931 19.8377 99.9262 20.1147C100.259 20.3916 100.803 20.5301 101.558 20.5301Z" fill="white"/>
<path d="M105.628 20.6084C105.921 20.6084 106.19 20.5682 106.434 20.488C106.679 20.4077 106.896 20.2913 107.085 20.1388C107.277 19.9862 107.434 19.8056 107.554 19.5969H107.657V20.5H109.138V16.0027C109.138 15.5411 109.035 15.1458 108.831 14.8166C108.626 14.4835 108.327 14.2306 107.934 14.0581C107.54 13.8814 107.059 13.7931 106.489 13.7931C105.971 13.7931 105.513 13.8694 105.116 14.0219C104.719 14.1744 104.399 14.3892 104.159 14.6661C103.918 14.9431 103.773 15.2662 103.725 15.6354L103.719 15.6896H105.134L105.14 15.6655C105.216 15.4488 105.363 15.2822 105.58 15.1658C105.796 15.0454 106.075 14.9852 106.416 14.9852C106.826 14.9852 107.135 15.0735 107.344 15.2501C107.552 15.4227 107.657 15.6736 107.657 16.0027V18.0858C107.657 18.3467 107.588 18.5815 107.452 18.7902C107.315 18.9949 107.129 19.1574 106.892 19.2778C106.655 19.3982 106.386 19.4584 106.085 19.4584C105.752 19.4584 105.477 19.3802 105.26 19.2236C105.048 19.0671 104.941 18.8484 104.941 18.5674V18.5554C104.941 18.2824 105.042 18.0697 105.242 17.9172C105.443 17.7647 105.754 17.6764 106.176 17.6523L108.397 17.5078V16.5204L105.965 16.671C105.162 16.7151 104.544 16.9058 104.111 17.2429C103.681 17.58 103.466 18.0416 103.466 18.6276V18.6397C103.466 19.041 103.559 19.3902 103.743 19.6872C103.932 19.9802 104.189 20.207 104.514 20.3675C104.843 20.5281 105.214 20.6084 105.628 20.6084Z" fill="white"/>
<path d="M113.761 20.6324C114.319 20.6324 114.797 20.5401 115.194 20.3555C115.592 20.1669 115.909 19.904 116.145 19.5668C116.386 19.2297 116.543 18.8383 116.615 18.3928L116.621 18.3386L115.212 18.3447L115.2 18.3687C115.108 18.7139 114.941 18.9748 114.701 19.1514C114.464 19.328 114.151 19.4163 113.761 19.4163C113.42 19.4163 113.129 19.33 112.888 19.1574C112.648 18.9808 112.461 18.728 112.328 18.3988C112.2 18.0657 112.136 17.6663 112.136 17.2008V17.1887C112.136 16.7271 112.2 16.3338 112.328 16.0087C112.457 15.6836 112.642 15.4347 112.882 15.2622C113.127 15.0896 113.42 15.0033 113.761 15.0033C114.171 15.0033 114.496 15.1056 114.737 15.3103C114.982 15.515 115.138 15.7779 115.206 16.099L115.212 16.1171H116.627V16.093C116.571 15.6354 116.422 15.2361 116.182 14.8949C115.945 14.5497 115.622 14.2808 115.212 14.0882C114.807 13.8915 114.321 13.7931 113.755 13.7931C113.097 13.7931 112.533 13.9296 112.064 14.2025C111.594 14.4715 111.235 14.8588 110.986 15.3645C110.737 15.8702 110.613 16.4783 110.613 17.1887V17.2008C110.613 17.9152 110.737 18.5293 110.986 19.043C111.235 19.5568 111.594 19.9501 112.064 20.2231C112.533 20.496 113.099 20.6324 113.761 20.6324Z" fill="white"/>
<path d="M118.114 20.5H119.613V11.3729H118.114V20.5ZM122.25 20.5H124.05L121.149 16.5987L120.035 17.5138L122.25 20.5ZM119.487 18.3206L120.33 17.4596L121.016 16.9238L123.876 13.9196H122.142L119.716 16.6228H119.433L119.487 18.3206Z" fill="white"/>
<path d="M126.14 20.5H129.078C129.696 20.5 130.227 20.4017 130.673 20.205C131.118 20.0043 131.46 19.7193 131.696 19.3501C131.937 18.9808 132.058 18.5433 132.058 18.0376V18.0256C132.058 17.6523 131.973 17.3151 131.805 17.0141C131.64 16.7131 131.409 16.4703 131.112 16.2856C130.819 16.097 130.478 15.9846 130.089 15.9485V15.8401C130.382 15.792 130.643 15.6796 130.872 15.503C131.104 15.3264 131.289 15.1056 131.426 14.8407C131.566 14.5758 131.636 14.2908 131.636 13.9858V13.9738C131.636 13.5282 131.53 13.1449 131.317 12.8238C131.104 12.4987 130.801 12.2499 130.408 12.0773C130.015 11.9007 129.541 11.8124 128.987 11.8124H126.14V13.0165H128.614C129.084 13.0165 129.449 13.1249 129.71 13.3416C129.971 13.5583 130.101 13.8594 130.101 14.2447V14.2567C130.101 14.6501 129.957 14.9511 129.668 15.1598C129.383 15.3685 128.965 15.4729 128.415 15.4729H126.14V16.5746H128.656C129.053 16.5746 129.387 16.6248 129.656 16.7251C129.928 16.8255 130.133 16.976 130.27 17.1767C130.406 17.3774 130.474 17.6242 130.474 17.9172V17.9292C130.474 18.3707 130.326 18.7099 130.029 18.9467C129.732 19.1795 129.296 19.2959 128.722 19.2959H126.14V20.5ZM125.363 20.5H126.916V11.8124H125.363V20.5Z" fill="white"/>
<path d="M133.659 20.5H135.158V11.3729H133.659V20.5Z" fill="white"/>
<path d="M137.061 20.5H138.554V13.9196H137.061V20.5ZM137.813 12.8178C138.058 12.8178 138.267 12.7315 138.439 12.5589C138.616 12.3864 138.704 12.1797 138.704 11.9388C138.704 11.69 138.616 11.4813 138.439 11.3127C138.267 11.1401 138.058 11.0538 137.813 11.0538C137.568 11.0538 137.358 11.1401 137.181 11.3127C137.005 11.4813 136.916 11.69 136.916 11.9388C136.916 12.1797 137.005 12.3864 137.181 12.5589C137.358 12.7315 137.568 12.8178 137.813 12.8178Z" fill="white"/>
<path d="M142.991 20.5301C143.135 20.5301 143.274 20.5241 143.406 20.512C143.543 20.5 143.663 20.4839 143.768 20.4639V19.3079C143.679 19.316 143.599 19.324 143.527 19.332C143.459 19.336 143.37 19.338 143.262 19.338C142.953 19.338 142.728 19.2638 142.588 19.1153C142.451 18.9628 142.383 18.7239 142.383 18.3988V15.0815H143.768V13.9196H142.383V12.3061H140.86V13.9196H139.836V15.0815H140.86V18.754C140.86 19.3842 141.026 19.8377 141.359 20.1147C141.693 20.3916 142.236 20.5301 142.991 20.5301Z" fill="white"/>
<path d="M145.116 20.5H150.45V19.3441H147.013V19.2417L150.396 14.919V13.9196H145.146V15.0815H148.626V15.1839L145.116 19.5849V20.5Z" fill="white"/>
</svg>
