<svg width="105" height="119" viewBox="0 0 105 119" fill="none" xmlns="http://www.w3.org/2000/svg">
<g opacity="0.5">
<g opacity="0.2" filter="url(#filter0_f_392_1268)">
<rect x="6" y="23.8281" width="73.0131" height="89.1717" rx="1.55917" fill="white"/>
</g>
<g opacity="0.4" filter="url(#filter1_f_392_1268)">
<rect x="17.6938" y="13.6934" width="72.4146" height="89.1717" rx="1.55917" fill="white"/>
</g>
<g opacity="0.5" filter="url(#filter2_f_392_1268)">
<path d="M29.6553 3.55917C29.6553 2.69807 30.3533 2 31.2144 2H84.8722C85.275 2 85.6622 2.15589 85.9526 2.43501L102.19 18.0399C102.495 18.3338 102.668 18.7398 102.668 19.164V89.6125C102.668 90.4736 101.97 91.1717 101.109 91.1717H31.2144C30.3533 91.1717 29.6553 90.4736 29.6553 89.6125V3.55917Z" fill="white"/>
</g>
<g filter="url(#filter3_f_392_1268)">
<path d="M83 3.64376L83 19.4408C83 20.3019 83.6981 21 84.5592 21L101.108 21C102.515 21 103.203 19.2842 102.185 18.313L85.6357 2.51593C84.6435 1.56883 83 2.2721 83 3.64376Z" fill="white"/>
</g>
</g>
<defs>
<filter id="filter0_f_392_1268" x="0.0153232" y="17.8434" width="84.9825" height="101.141" filterUnits="userSpaceOnUse" color-interpolation-filters="sRGB">
<feFlood flood-opacity="0" result="BackgroundImageFix"/>
<feBlend mode="normal" in="SourceGraphic" in2="BackgroundImageFix" result="shape"/>
<feGaussianBlur stdDeviation="2.99234" result="effect1_foregroundBlur_392_1268"/>
</filter>
<filter id="filter1_f_392_1268" x="12.9061" y="8.90562" width="81.99" height="98.7474" filterUnits="userSpaceOnUse" color-interpolation-filters="sRGB">
<feFlood flood-opacity="0" result="BackgroundImageFix"/>
<feBlend mode="normal" in="SourceGraphic" in2="BackgroundImageFix" result="shape"/>
<feGaussianBlur stdDeviation="2.39387" result="effect1_foregroundBlur_392_1268"/>
</filter>
<filter id="filter2_f_392_1268" x="28.0961" y="0.440834" width="76.1315" height="92.2902" filterUnits="userSpaceOnUse" color-interpolation-filters="sRGB">
<feFlood flood-opacity="0" result="BackgroundImageFix"/>
<feBlend mode="normal" in="SourceGraphic" in2="BackgroundImageFix" result="shape"/>
<feGaussianBlur stdDeviation="0.779583" result="effect1_foregroundBlur_392_1268"/>
</filter>
<filter id="filter3_f_392_1268" x="81.4408" y="0.522865" width="22.7892" height="22.0363" filterUnits="userSpaceOnUse" color-interpolation-filters="sRGB">
<feFlood flood-opacity="0" result="BackgroundImageFix"/>
<feBlend mode="normal" in="SourceGraphic" in2="BackgroundImageFix" result="shape"/>
<feGaussianBlur stdDeviation="0.779583" result="effect1_foregroundBlur_392_1268"/>
</filter>
</defs>
</svg>
